<?xml version="1.0" encoding="UTF-8" standalone="no"?><!DOCTYPE svg PUBLIC "-//W3C//DTD SVG 1.1//EN" "http://www.w3.org/Graphics/SVG/1.1/DTD/svg11.dtd"><svg width="100%" height="100%" viewBox="0 0 255 57" version="1.1" xmlns="http://www.w3.org/2000/svg" xmlns:xlink="http://www.w3.org/1999/xlink" xml:space="preserve" xmlns:serif="http://www.serif.com/" style="fill-rule:evenodd;clip-rule:evenodd;stroke-linecap:round;stroke-linejoin:round;stroke-miterlimit:1.5;"><path id="extra_1" d="M33.289,15.312c0.33,-1.438 -0.522,-3.19 -0.522,-3.19c-0.829,-4.068 -11.502,-3.299 -11.502,-3.299c-5.751,1.719 -6.572,7.265 -6.572,7.265c-5.9,12.744 18.217,13.41 18.217,13.41c14.354,0.774 45.605,-19.369 45.605,-19.369c28.156,-19.378 48.599,1.973 48.599,1.973l-0.271,23.085c-2.634,1.14 -4.45,1.54 -4.45,1.54c-8.18,6.59 -21.42,11.05 -21.42,11.05c-60.777,18.73 -91.539,-9.54 -91.539,-9.54c-20.559,-24.948 8.047,-33.256 8.047,-33.256c8.482,-2.436 11.146,0.083 11.146,0.083c4.334,5.294 5.244,8.417 4.662,10.248c-0.111,0.483 -0.355,0.93 -0.809,1.265c-1.573,1.448 -4.592,1.305 -5.41,1.236c0.836,-0.074 3.846,-0.687 3.846,-0.687c0.687,-0.081 1.195,-0.278 1.564,-0.549c0.36,-0.332 0.644,-0.747 0.809,-1.265Zm188.299,0c-0.59,-1.831 0.32,-4.954 4.66,-10.248c0,0 2.66,-2.519 11.14,-0.083c0,0 28.61,8.308 8.05,33.256c0,0 -30.76,28.27 -91.538,9.54c0,0 -13.24,-4.46 -21.42,-11.05c0,0 -1.816,-0.4 -4.45,-1.54l-0.271,-23.085c0,0 20.443,-21.351 48.599,-1.973c0,0 31.25,20.143 45.6,19.369c0,0 24.12,-0.666 18.22,-13.41c0,0 -0.82,-5.546 -6.57,-7.265c0,0 -10.67,-0.769 -11.5,3.299c0,0 -0.86,1.752 -0.52,3.19c0.16,0.518 0.44,0.933 0.81,1.265c0.36,0.271 0.87,0.468 1.56,0.549c0,0 3.01,0.613 3.85,0.687c-0.82,0.069 -3.84,0.212 -5.41,-1.236c-0.46,-0.335 -0.7,-0.782 -0.81,-1.265Zm-194.518,2.501c-0.153,0.013 -0.233,0.009 -0.209,-0.021c0,0 0.075,0.009 0.209,0.021Zm200.738,0c0.13,-0.012 0.2,-0.021 0.2,-0.021c0.03,0.03 -0.05,0.034 -0.2,0.021Z" style="stroke:#000;stroke-width:4px;"/></svg>