<?xml version="1.0" encoding="UTF-8" standalone="no"?><!DOCTYPE svg PUBLIC "-//W3C//DTD SVG 1.1//EN" "http://www.w3.org/Graphics/SVG/1.1/DTD/svg11.dtd"><svg width="100%" height="100%" viewBox="0 0 285 106" version="1.1" xmlns="http://www.w3.org/2000/svg" xmlns:xlink="http://www.w3.org/1999/xlink" xml:space="preserve" xmlns:serif="http://www.serif.com/" style="fill-rule:evenodd;clip-rule:evenodd;stroke-linecap:round;stroke-linejoin:round;stroke-miterlimit:1.5;"><g id="extra_2"><path d="M18.322,35.933c0,0 -5.22,54.516 45.26,61.423c0,0 43.992,4.414 55.594,-44.946c0,0 8.165,-30.133 -15.257,-40.138c0,0 -38.643,-9.388 -61.33,-1.731c0,0 -23.626,3.555 -24.267,25.392Z" style="fill:none;stroke:#000;stroke-width:4px;"/><path d="M266.878,35.829c0,0 5.22,54.516 -45.26,61.423c0,0 -43.992,4.414 -55.594,-44.946c0,0 -8.165,-30.133 15.257,-40.138c0,0 38.643,-9.388 61.33,-1.731c0,0 23.626,3.555 24.267,25.392Z" style="fill:none;stroke:#000;stroke-width:4px;"/><path d="M121.444,14.274c0,0 18.244,-4.538 38.083,0.096c0,0 0.657,1.672 12.596,-3.956c11.939,-5.627 47.554,-10.409 59.608,-7.57c0,0 37.375,5.885 49.101,10.037c0,0 3.652,2.683 0.895,9.52c0,0 -8.031,2.981 -8.283,15.324c0,0 1.292,43.63 -35.333,60.734c-36.625,17.104 -66.871,-19.346 -66.871,-19.346c0,0 -18.402,-29.384 -18.196,-42.195c0,0 3.617,-10.505 -3.174,-12.593c0,0 -13.319,-3.396 -19.128,2.384c0,0 -2.413,2.24 0.324,9.909c0,0 -1.275,30.313 -27.662,54.04c0,0 -23.768,16.938 -49.932,10.121c0,0 -33.782,-8.777 -39.109,-47.046c0,0 -3.853,-24.182 -6.34,-26.547c0,0 -2.327,-2.411 -4.644,-3.73c0,0 -3.11,-7.141 0.012,-9.641c0,0 27.52,-7.522 37.285,-9.055c9.766,-1.533 35.527,-4.021 47.46,-1.335c0,0 21.272,3.805 33.308,10.849Z" style="fill:none;stroke:#000;stroke-width:4px;"/></g></svg>