<?xml version="1.0" encoding="UTF-8" standalone="no"?><!DOCTYPE svg PUBLIC "-//W3C//DTD SVG 1.1//EN" "http://www.w3.org/Graphics/SVG/1.1/DTD/svg11.dtd"><svg width="100%" height="100%" viewBox="0 0 27 7" version="1.1" xmlns="http://www.w3.org/2000/svg" xmlns:xlink="http://www.w3.org/1999/xlink" xml:space="preserve" xmlns:serif="http://www.serif.com/" style="fill-rule:evenodd;clip-rule:evenodd;stroke-linecap:round;stroke-linejoin:round;stroke-miterlimit:1.5;"><g><path d="M11.135,1.874c0,-0.79 -0.641,-1.431 -1.431,-1.431l-7.83,0c-0.79,0 -1.431,0.641 -1.431,1.431l0,2.862c0,0.789 0.641,1.431 1.431,1.431l7.83,0c0.79,0 1.431,-0.642 1.431,-1.431l0,-2.862Z" style="fill:none;stroke:#000;stroke-width:0.89px;"/><circle cx="6.144" cy="3.305" r="0.604"/><path d="M15.518,1.874c0,-0.79 0.641,-1.431 1.431,-1.431l7.83,0c0.79,0 1.431,0.641 1.431,1.431l0,2.862c0,0.789 -0.641,1.431 -1.431,1.431l-7.83,0c-0.79,0 -1.431,-0.642 -1.431,-1.431l0,-2.862Z" style="fill:none;stroke:#000;stroke-width:0.89px;"/><circle cx="20.509" cy="3.305" r="0.604"/></g></svg>