  <?xml version="1.0" encoding="UTF-8" standalone="no"?>
  <!DOCTYPE svg PUBLIC "-//W3C//DTD SVG 1.1//EN" "http://www.w3.org/Graphics/SVG/1.1/DTD/svg11.dtd">
  <svg width="100%" height="100%" viewBox="0 0 294 256" version="1.1" xmlns="http://www.w3.org/2000/svg" xmlns:xlink="http://www.w3.org/1999/xlink" xml:space="preserve" xmlns:serif="http://www.serif.com/" style="fill-rule:evenodd;clip-rule:evenodd;stroke-linecap:round;stroke-linejoin:round;stroke-miterlimit:1.5;">
    <path id="head_1" d="M123.074,24.96c0,-12.396 10.536,-22.46 23.512,-22.46c12.977,0 23.513,10.064 23.513,22.46c5.466,-11.453 19.638,-17.252 31.627,-12.942c11.989,4.309 17.284,17.106 11.818,28.558c10.101,-8.765 25.751,-9.417 34.927,-1.454c9.176,7.963 8.425,21.544 -1.676,30.309c13.197,-4.743 27.944,-0.148 32.91,10.256c4.966,10.404 -1.717,22.702 -14.914,27.446c14.284,0 25.882,9.142 25.882,20.403c0,11.261 -11.598,20.404 -25.882,20.404c13.197,4.744 19.88,17.042 14.914,27.446c-4.966,10.404 -19.713,14.999 -32.91,10.255c10.101,8.765 10.852,22.347 1.676,30.309c-9.176,7.963 -24.826,7.312 -34.927,-1.454c5.466,11.453 0.171,24.249 -11.818,28.559c-11.989,4.309 -26.161,-1.49 -31.627,-12.942c0,12.396 -10.536,22.46 -23.513,22.46c-12.976,0 -23.512,-10.064 -23.512,-22.46c-5.466,11.452 -19.638,17.251 -31.627,12.942c-11.989,-4.31 -17.284,-17.106 -11.818,-28.559c-10.101,8.766 -25.751,9.417 -34.927,1.454c-9.176,-7.962 -8.425,-21.544 1.676,-30.309c-13.198,4.744 -27.944,0.149 -32.91,-10.255c-4.966,-10.404 1.717,-22.702 14.914,-27.446c-14.285,0 -25.882,-9.143 -25.882,-20.404c0,-11.261 11.597,-20.403 25.882,-20.403c-13.197,-4.744 -19.88,-17.042 -14.914,-27.446c4.966,-10.404 19.712,-14.999 32.91,-10.256c-10.101,-8.765 -10.852,-22.346 -1.676,-30.309c9.176,-7.963 24.826,-7.311 34.927,1.454c-5.466,-11.452 -0.171,-24.249 11.818,-28.558c11.989,-4.31 26.161,1.489 31.627,12.942Z" style="fill:none;stroke:#000;stroke-width:5px;"/>
  </svg>